<?xml version="1.0" encoding="UTF-8"?>
<svg id="Layer_2" data-name="Layer 2" xmlns="http://www.w3.org/2000/svg" viewBox="0 0 890.85 159.36">
  <defs>
    <style>
      .cls-1 {
        fill: #d29fa0;
      }

      .cls-2 {
        fill: #d50001;
      }

      .cls-3 {
        fill: #d88f8e;
      }

      .cls-4 {
        fill: #d90104;
      }

      .cls-5 {
        fill: #c90509;
      }

      .cls-6 {
        fill: #ce0302;
      }

      .cls-7 {
        fill: #cf0305;
      }

      .cls-8 {
        fill: #c80508;
      }

      .cls-9 {
        fill: #d00202;
      }

      .cls-10 {
        fill: #c4080a;
      }

      .cls-11 {
        fill: #d40204;
      }

      .cls-12 {
        fill: #c60604;
      }

      .cls-13 {
        fill: #d50202;
      }

      .cls-14 {
        fill: #d40305;
      }

      .cls-15 {
        fill: #d40101;
      }

      .cls-16 {
        fill: #cf0203;
      }

      .cls-17 {
        fill: #c90402;
      }

      .cls-18 {
        fill: #bd080a;
      }

      .cls-19 {
        fill: #d70100;
      }

      .cls-20 {
        fill: #c90605;
      }

      .cls-21 {
        fill: #c70707;
      }

      .cls-22 {
        fill: #d60208;
      }

      .cls-23 {
        fill: #d79091;
      }

      .cls-24 {
        fill: #d88f90;
      }

      .cls-25 {
        fill: #d40309;
      }

      .cls-26 {
        fill: #d10306;
      }

      .cls-27 {
        fill: #cd0406;
      }

      .cls-28 {
        fill: #d98f90;
      }

      .cls-29 {
        fill: #dc0303;
      }

      .cls-30 {
        fill: #c70706;
      }

      .cls-31 {
        fill: #cd0306;
      }

      .cls-32 {
        fill: #c4070b;
      }

      .cls-33 {
        fill: #c80605;
      }

      .cls-34 {
        fill: #ce0202;
      }

      .cls-35 {
        fill: #c50708;
      }

      .cls-36 {
        fill: #c6070c;
      }

      .cls-37 {
        fill: #cc0307;
      }

      .cls-38 {
        fill: #c50706;
      }

      .cls-39 {
        fill: #ca0501;
      }

      .cls-40 {
        fill: #d70108;
      }

      .cls-41 {
        fill: #e28b8b;
      }

      .cls-42 {
        fill: #cc0301;
      }

      .cls-43 {
        fill: #db0207;
      }

      .cls-44 {
        fill: #cc0406;
      }

      .cls-45 {
        fill: #d40104;
      }

      .cls-46 {
        fill: #cd0302;
      }

      .cls-47 {
        fill: #d10202;
      }

      .cls-48 {
        fill: #cc0601;
      }

      .cls-49 {
        fill: #c60504;
      }

      .cls-50 {
        fill: #d20205;
      }

      .cls-51 {
        fill: #cc0405;
      }

      .cls-52 {
        fill: #d20105;
      }

      .cls-53 {
        fill: #c00;
      }

      .cls-54 {
        fill: #ca0601;
      }

      .cls-55 {
        fill: #c80a09;
      }

      .cls-56 {
        fill: #b90a0f;
      }

      .cls-57 {
        fill: #ce0508;
      }

      .cls-58 {
        fill: #d00206;
      }

      .cls-59 {
        fill: #c40606;
      }

      .cls-60 {
        fill: #d30202;
      }

      .cls-61 {
        fill: #c70502;
      }

      .cls-62 {
        fill: #c60608;
      }

      .cls-63 {
        fill: #c90508;
      }

      .cls-64 {
        fill: #d20309;
      }

      .cls-65 {
        fill: #cf0204;
      }

      .cls-66 {
        fill: #d00302;
      }

      .cls-67 {
        fill: #c70704;
      }

      .cls-68 {
        fill: #cd0305;
      }

      .cls-69 {
        fill: #d20410;
      }

      .cls-70 {
        fill: #cb0502;
      }

      .cls-71 {
        fill: #de0102;
      }

      .cls-72 {
        fill: #d5050c;
      }

      .cls-73 {
        fill: #d00303;
      }

      .cls-74 {
        fill: #c60509;
      }

      .cls-75 {
        fill: #d10c0a;
      }

      .cls-76 {
        fill: #c80607;
      }

      .cls-77 {
        fill: #b90b0b;
      }

      .cls-78 {
        fill: #d00507;
      }

      .cls-79 {
        fill: #d40608;
      }

      .cls-80 {
        fill: #cf0607;
      }

      .cls-81 {
        fill: #d80205;
      }

      .cls-82 {
        fill: #d20202;
      }

      .cls-83 {
        fill: #d58484;
      }

      .cls-84 {
        fill: #d50205;
      }

      .cls-85 {
        fill: #c90407;
      }

      .cls-86 {
        fill: #d10301;
      }

      .cls-87 {
        fill: #cf0202;
      }

      .cls-88 {
        fill: #d30302;
      }

      .cls-89 {
        fill: #d5030c;
      }

      .cls-90 {
        fill: #c20804;
      }

      .cls-91 {
        fill: #d79191;
      }

      .cls-92 {
        fill: #9b0305;
      }

      .cls-93 {
        fill: #d20301;
      }

      .cls-94 {
        fill: #cd0403;
      }

      .cls-95 {
        fill: #d40103;
      }

      .cls-96 {
        fill: #ca0503;
      }

      .cls-97 {
        fill: #cd0402;
      }

      .cls-98 {
        fill: #d00406;
      }

      .cls-99 {
        fill: #cd0404;
      }

      .cls-100 {
        fill: #c80809;
      }

      .cls-101 {
        fill: #d10205;
      }

      .cls-102 {
        fill: #d30204;
      }

      .cls-103 {
        fill: #d00307;
      }

      .cls-104 {
        fill: #cc0501;
      }

      .cls-105 {
        fill: #ce0506;
      }

      .cls-106 {
        fill: #d50201;
      }

      .cls-107 {
        fill: #d88d8d;
      }

      .cls-108 {
        fill: #d40100;
      }

      .cls-109 {
        fill: #d20101;
      }

      .cls-110 {
        fill: #ca0408;
      }

      .cls-111 {
        fill: #ae0d0b;
      }

      .cls-112 {
        fill: #d40202;
      }

      .cls-113 {
        fill: #c68584;
      }

      .cls-114 {
        fill: #d40005;
      }

      .cls-115 {
        fill: #b40b10;
      }

      .cls-116 {
        fill: #d20307;
      }

      .cls-117 {
        fill: #d00308;
      }

      .cls-118 {
        fill: #d30504;
      }

      .cls-119 {
        fill: #d1020c;
      }

      .cls-120 {
        fill: #c50605;
      }

      .cls-121 {
        fill: #cc0404;
      }

      .cls-122 {
        fill: #d90302;
      }

      .cls-123 {
        fill: #d68b8b;
      }

      .cls-124 {
        fill: #c40707;
      }

      .cls-125 {
        fill: #d50100;
      }

      .cls-126 {
        fill: #cd0301;
      }

      .cls-127 {
        fill: #c50807;
      }

      .cls-128 {
        fill: #d40007;
      }

      .cls-129 {
        fill: #d5060e;
      }

      .cls-130 {
        fill: #d50103;
      }

      .cls-131 {
        fill: #ca0403;
      }

      .cls-132 {
        fill: #d90203;
      }

      .cls-133 {
        fill: #cc0403;
      }

      .cls-134 {
        fill: #d30102;
      }

      .cls-135 {
        fill: #cd0304;
      }

      .cls-136 {
        fill: #d60302;
      }
    </style>
  </defs>
  <g id="Layer_1-2" data-name="Layer 1">
    <g>
      <g>
        <path class="cls-87" d="M91.34,0c26.35,3.63,48.88,20.25,61.49,44.86-1.63,1.53-4.37,1.5-6.39,2.16-3.58-.31-4.92.17-4.03,1.42-5.03,3.54-12.4,5.09-18.39,8.2-4.59,2.38-8.04,5.19-12.58,6.48l-9.98,7.15c-.9,1.11-1.7.44-2.4-2.01l-3.46-4.07c-.97,6.07-4,7.08-9.14,3.2l-1.63,1.08c2.6.63,2.65,1.96-.09,2.45-.61,2.07-1.4,3.37-2.81,1.29-2.79-.04-2.73-2.17.03-2.67-1.39-1.36-2.26-2.7-2.62-4.03-1.19,1.04-2.35,1.24-2.92.03-4.29-9.1-8.84-18.39-15.13-26.44-1.35-2.45-.5-3.26,1.72-1.54-1.13-3.96,2.61-5.06,5.51-2.42.05.04-.69-.58-.71-1.02-.02-.59.25-1.2.61-1.8-1.72-2.03-3.54-5.23-4.39-7.83-1.77-2.01-2.99-4.65-3.65-7.93-3.09-.91-4.16-1.01-3.01,2.42,2.01,1.34,4.42,6.68,2.06,7.73,1.11,2.17.37,2.82-1.61,1.39-.52.45-1.05.83-1.63.94-.64.12-8.2-8.14-8.31-9.72-1.11-3.47-2.21-4.17-3.3-2.08l-1.53-1.21c-2.53-2.57-3.72-4.68-.19-6.89,1.64-.96,3.66-1.92,5.46-2.65,1.13,1.16,1.79,1.32,1.98.49,3.14-.77,6.14-1.97,8.99-3.59l9.3-1.92-.06-1.47h22.81ZM100.79,5.34c-.66-2.25-3.07-1.57-2.97.48-.17,3.38,3.95,2.83,2.97-.48ZM118.2,15.12c-3.6-.53-5.39,1.34-7.13.79-1.01-.32-1.51-3.37-2.11-4.4-2.6-1.21-7.51.52-9.65,2.94l13.16,5.3c1.83-2.27,3.8-3.28,5.73-4.63ZM126.9,17.8c.08,1.26.79,3.22,1.39,3.49-.1-.05,2.47-3.46,1.22-3.95-.92-.36-2.63.02-2.6.46ZM134.55,49.21c2.85-4.66,4.37-9.22,7.97-12.53-.91-1.85-2.78-1.78-3.25-1.06-2.89,7.64-7.43,10.58-7.65,11.68-.2.98,2.36,2.83,2.93,1.9ZM128.61,49.35c-.71-2.43-5.44-3.99-6.64-3.01-1.52,2.13.94,3.18,1.83,4.03,1.36,1.29,5.46,1.23,4.81-1.02Z"/>
        <path class="cls-87" d="M32.45,47.24c1.38,2.46,3.15,4.51,5.3,6.16,11.64,16.48,15.05,35.38,18.34,55.04-.15,8.47-.48,16.91-1,25.32,0,3.85-.21,7.18-.96,10.84-1.52,2.74-2.55,5.7-3.11,8.89-3.39-2.18-7-3.78-10.83-4.78-2.71-1.67-6.21-2.53-7.91-5.65-4.81-3.95-9.27-8.39-13.39-13.3-1.33-.52-1.98-1.58-2.79-2.61l-.96-3.46C1.69,100.94-4.07,79.94,5.72,53.45c.04-8.58,6.47-15.74,11.55-23.3l12.09,11.65c1.65,1.59,3.02,3.43,3.09,5.43Z"/>
        <path class="cls-87" d="M158.45,92.37c0,9.43-8.35,30.77-15.6,35.1-1.31,3.69-5.35,7.18-6.87,2.3-.16-.51,4.55-10.34.98-.74.94,2.06,1.47,3.65,1.58,4.78l-4.1,4.1-5.05,2.57c-1.78,1.28-6.67,1.47-8.34.16l-1.57,5.4c3.35-1.73,4.02-.27,1.38,2.49-11.42,5.96-23.79,10.67-38.02,10.84,7.81-25.71,14.21-45.44,32.65-63.47l3.34-1.5c1.54,1.83,2.29,1.53,2.26-.89l1.08-1.83c3.75,2.1,7.29,2.8,10.62,2.09.27-2.09-1.57-3.51-5.51-4.28-.63-.64-1.11-1.26-1.03-1.8.2-1.38,11.35-8.31,14.09-7.46,1.6-2.65,15.83-7.35,17.39-6.66,2.26,1.01,1.49,15.55.72,18.79Z"/>
        <path class="cls-7" d="M81.95,69.55l-.03,2.67c.57,1.01,1.51.58,2.81-1.29l.09-2.45c.36-2.96,1.68-2.98,3.97-.05,1.97-1.52,2.96-.28,2.98,3.71,3.09-.85,4.87-.39,4.61,3.11l-15.26,18.54-3.19-18.84c-1.18-3.46-1.19-6.05-.03-7.76,1.56-1.4,3.18.66,4.05,2.37Z"/>
        <path class="cls-63" d="M158.45,92.37v-17.09c-7.09.28-13.4,1.38-17.43,6.98-4.98-1.4-8.4,1.69-12.87,5.23,3.85,2.9,9.72,1.44,7.25,5.3-.41.64-1.91.71-2.61.99-1.37,1.99-2.18,2.03-4.06,1.3s-6.72-3.71-6.35-5.32c9.53-9.91,22.75-14.12,37.1-18.4l.23,19.57c.01.91-.74,1.45-1.27,1.45Z"/>
        <path class="cls-124" d="M16.1,127.15C1.11,108.08-3.6,82.82,2.76,58.82c.62-2.35.87-4.31,2.96-5.37-.01,2.88-2,5.63-2.18,8.63-.62,9.91-2.23,20.15-.2,29.96l2.79,13.48,7.82,15.61c.44.87,3.38,1.76,3.29,2.6-.1.89-.65,2.46-1.13,3.42Z"/>
        <path class="cls-97" d="M95.59,64.19c1.96,1.76,3.3,4.5,4.03,8.21-.89.57-2.45,1.89-3.23,2.85-3.7-2.37-5.67,1.7-8.36-.69-.97-.87-.18-3.1,1.68-4.17-1.4-1.49-3.24-1.7-4.89-1.9l-1.29-7.55c-.22-1.3,1.92-2.39,2.54-2.82.82-.56,1.6.26,2.01.84,1.85,2.6-1.55,6.28-.09,7.68,2.85,2.72,3.2-.57,7.59-2.44Z"/>
        <path class="cls-10" d="M79.33,65.53c1.31,1.74.59,2.52-1.42,1.65l.03,7.76c-4.21-12.69-9.61-24.57-16.66-35.82,3.36,3.04,6.64,6.97,8.5,11.71,1.46,3.73,3.67,5.74,6.23,8.76,1.16,1.37.78,5.3,3.33,5.94Z"/>
        <path class="cls-96" d="M47.87,19.32l9.94,8.78c5.75,3.48,7.48,6.64,5.19,9.47-.55.2-.95.67-1.72,1.54l-13.39-17.41c-1.34-1.64-3.38-2.36-3.31-4.47,1.78-2.9,3.66-.95,3.3,2.08Z"/>
        <path class="cls-120" d="M32.28,143.06c-5.55-2.77-11.03-7.54-13.39-13.3,4.06,1.58,4.96,6.22,7.42,6.55,1.31.17,2.62-.2,4.44-1.06.13,2.11-.46,2.97-.92,4.54,1.3.1,1.94.33,2.25.78.4.57.38,2.01.18,2.51Z"/>
        <path class="cls-55" d="M68.59,1.47c-4.24,3.08-10.63.21-12.19,6.3-2.26-.82-4.35-.55-6.1-.79-.88,2.44-1.87,2.15-1.98-.49,6.42-2.6,13.2-5.04,20.27-5.02Z"/>
        <path class="cls-5" d="M121.1,93.51c-.39,1.14,6.77,4.87,3.05,5.66-3.74.79-5.08-2.36-8.64-3.27l6.89-6.14c3.6,1.31,2.47,4.09-1.29,3.76Z"/>
        <path class="cls-32" d="M40.19,148.71c3.46-.79,5.93.76,10.07,3.38,1.08-3.55,1.36-6.07,3.87-7.49l-2.14,10.39c-4.68-2.36-8.32-4.14-11.8-6.28Z"/>
        <path class="cls-59" d="M134.46,137.91c-1.67,1.68-2.91,4.39-5.58,5.18-3.41-1.12-3.02-2.29.53-2.61.47-2.55-2.06-4.15-3.25-6.28,3.91-.52,5.83,1.74,8.3,3.71Z"/>
        <path class="cls-80" d="M142.86,127.46c.87,3.43-2.49,4.53-4.3,6.34-1.53-1.49-3.02-2.17-5.93-3.26,2.88-1.5,4.12-2.66,5.27-6.67,1.3,2.3-.44,4.18.35,7.89,1.97-1.73,2.98-3.33,4.62-4.3Z"/>
        <path class="cls-1" d="M55.09,133.77l-.06-22.83c0-1.44.54-2.45,1.06-2.5l.52,22.71c.03,1.46-.74,2.57-1.53,2.62Z"/>
        <path class="cls-118" d="M129.4,140.48l-.53,2.61h-1.37c-1.77,1.14-3.5,1.6-5.18,1.38-3.69.05-3.78-1.32-1.26-3.83,2.1-1.49,5.68-.85,8.34-.16Z"/>
        <path class="cls-35" d="M127.51,143.08c-1.45,2.35-4.1,4.12-6.64,5.44-.32-.8-.71-1.99-1.38-2.49-2.16-2.12,1.52-4.34,2.83-1.56,1.07-1.87,3.1-2.49,5.18-1.39Z"/>
        <path class="cls-127" d="M111.43,63.13c-2.23,3.06-7.77,7.15-11.81,9.27-1.58-1.81-1.77-3.18-.57-4.14,1.03.82,2.38,1.39,4.03.45.91-.52,1.52-1.68.7-4.14,3.67,1.57,5.43-.81,7.65-1.45Z"/>
        <path class="cls-90" d="M37.75,53.41c-3.5.08-5.18-3.04-5.3-6.16,3.1.77,3.77,3.99,5.3,6.16Z"/>
        <path class="cls-115" d="M42.85,9.14c-1.34,2.24-.75,4.75.19,6.89-1.11-.99-3.65-2.13-3.96-3.54-.51-2.28,2.64-2.69,3.78-3.35Z"/>
        <path class="cls-75" d="M146.43,47.02c-1.04.34-3.13.79-4.03,1.42-.83-.53-1.56-.95-2.18-1.6-.53-.55-.32-1.87,1.44-2.58.79,1.72,2.69,2.92,4.78,2.76Z"/>
        <path class="cls-98" d="M68.42,32.33c.63.53,2,1.5,2.23,2.35.26.98-.63,2.22-1.9,3.42.4,2.9-2.83,1.82-1.35-.37-.22-2.31-1.93-1.62-2.48-1.15s-1.28.73-1.93,1c-1.54-5.83-8.18-4.87-5.19-9.47.38-.59.96-1.05,1.61-1.39,2.5-3.84,7.59,1.92,9,5.62Z"/>
        <path class="cls-108" d="M118.2,15.12c-1.93,1.35-3.91,2.37-5.73,4.63l-13.16-5.3c2.14-2.42,7.05-4.16,9.65-2.94.6,1.04,1.1,4.09,2.11,4.4,1.75.55,3.54-1.32,7.13-.79Z"/>
        <path class="cls-15" d="M64.02,24.5c-1.2,2.78-3.42.94-6.67-5.51-.9.11-2.87-.3-3.22-1.12-.44-1.03,1.12-4.57,2.52-4.98,1.48.15,3.99,1.77,6.3.72.39,3.8.3,7.51,1.06,10.9Z"/>
        <path class="cls-96" d="M64.02,24.5c3.71.65,5.14,4.5,4.39,7.83-2.02,2.26-3.68-5.42-9-5.62l-2.06-7.73c4.51-.56,2.38,4.76,4.86,5.19l1.81.32Z"/>
        <path class="cls-81" d="M99.05,68.26c.19,1.18.94,2.63.57,4.14-2.87-1.73-5.03-4.94-4.03-8.21,2.08-.88,4.46-.6,6.42.64-1.51,1.25-2.64,2.45-2.96,3.43Z"/>
        <path class="cls-64" d="M134.55,49.21c-.57.93-3.13-.92-2.93-1.9.22-1.1,4.77-4.05,7.65-11.68.48-.73,2.34-.8,3.25,1.06-3.6,3.31-5.13,7.87-7.97,12.53Z"/>
        <path class="cls-19" d="M128.61,49.35c.66,2.24-3.45,2.3-4.81,1.02-.89-.84-3.36-1.9-1.83-4.03,1.2-.98,5.93.58,6.64,3.01Z"/>
        <path class="cls-25" d="M47.87,19.32c-1.05-.99-1.95-1.72-3.3-2.08-.21-.61,0-2.18.42-2.7,1.02-1.24,2.05-.86,3.92.52l-1.05,4.26Z"/>
        <path class="cls-4" d="M48.31,6.49l1.98.49c.48,1.17,1.43,2.27,2.18,3.15-1.12,1.85-3.86,2.11-4.33,1.22-.58-1.08.03-3.44.17-4.86Z"/>
        <path class="cls-97" d="M81.92,72.23l2.81-1.29c-.03.84.16,2.8-.63,3.9-.37.51-2.03-.15-2.69-.98-.41-.51-1.27-1.18.51-1.62Z"/>
        <path class="cls-29" d="M100.79,5.34c.98,3.32-3.14,3.87-2.97.48-.1-2.05,2.31-2.73,2.97-.48Z"/>
        <path class="cls-43" d="M126.9,17.8c-.03-.43,1.69-.81,2.6-.46,1.25.48-1.32,3.9-1.22,3.95-.6-.27-1.31-2.23-1.39-3.49Z"/>
        <path class="cls-97" d="M81.95,69.55l-4.05-2.37c0-.7.64-1.57,1.42-1.65,1.68.42,2.64,2.3,2.62,4.03Z"/>
        <path class="cls-134" d="M38.34,68.4c-3.82,4.47,11.66,9.18,4.16,15.27l-9.21-12.81,6.93-8.43c2.11,1.54,2.56,3.52,2.54,5.46-1.68-.5-3.69-.33-4.42.51Z"/>
        <path class="cls-104" d="M49.37,132.27c3.18,3.27.55,5.02-3.36,2.89-1.16.42-1.53,2.03-1.93,3.48-.53,1.93-2.71,1.67-4.04,1.27-2.88-.85-1.74-4.78-5.65-6.17-.69-.25-.38-3.08.27-2.82l6.44,2.6c2.34-3.25,6.45-3.14,8.28-1.26Z"/>
        <path class="cls-128" d="M49.67,140.36c-4.53,1.75-3.9,8.07-7.86,6.26-1.26-.58-3.74-3.22-.87-4.36,1.57-.62,6.06-.67,5.97-2.88-1.77-7.79,8.09-4.57,2.76.99Z"/>
        <path class="cls-95" d="M49.67,140.36c.42-.88.22-4.04-.92-4.03-2.3,0-1.87,2.25-1.84,3.05-1.57-.67-1.62-2.81-.9-4.21,1.44-.52,2.82-1.19,3.36-2.89.83.2,2.4.43,2.66,1.21.96,2.88.74,6.45-.72,7.64-.49.4-1.21.17-1.64-.76Z"/>
        <path class="cls-12" d="M32.43,68.43c-1.35-1.57-1.48-3.38-1.29-5.4,1.65-.55,2.53.2,3.19,1.2s1.46,3.05-1.9,4.19Z"/>
        <path class="cls-79" d="M13.09,53.52c-2.14-.47-3.65-.49-6.27.03.35-1.68,1.41-2.38,2.17-2.66,1.23-.45,3.79-.47,4.09,2.63Z"/>
        <path class="cls-101" d="M105.56,127.52c-2.34-.5-4.7-.68-7.07-.53-.64-4.32,2.31-8.1,5.3-10.32.58-.7.81-2.47.7-3.34,2.32-1.59,4.2-1.56,4.29,1.67.02-2.45,1.11-2.94,3.28-1.49,1.67-2.25,3.85.71,1.86,1.67-.4,2.05-1.67,3.43-3.38,3.59-1.14.11-2.13-1.49-4.55-1.87.97,3.81,2.13,7.04-.43,10.6Z"/>
        <path class="cls-106" d="M132.8,93.78c-1.36,1.44-1.46,3.97-5.27,5.4-.64-4-3.42-6.12-6.43-5.67l1.29-3.76,10.41,4.02Z"/>
        <path class="cls-117" d="M141.72,120.83c.17-7.23,2.29-10.61,9.05-12.24l-9.05,12.24Z"/>
        <path class="cls-17" d="M105.56,127.52c-1.12,1.56-6.75,1.66-7.07-.53.74-.78,1.9-2.33,3.09-2.48,1.68-.21,3.17,1.46,3.99,3.01Z"/>
        <path class="cls-61" d="M94.11,151.36c-.29,1.53-2.62,1.36-3.64-.04s-.95-4.09.63-4c1,.06,3.19,3.07,3.01,4.04Z"/>
        <path class="cls-72" d="M108.79,115l-4.29-1.67c-.05-.42-1.35-1.05-.84-2.5,2.25,1.36,4.21.6,5.32-1.5,2.03,3.19,1.96,5.08-.19,5.67Z"/>
        <path class="cls-129" d="M122.32,144.47c-.81.24-2.31.43-2.83,1.56-.94-.69-2.01-1.26-2.67-2.39l4.24-3.01c.02,1.33.48,2.7,1.26,3.83Z"/>
        <path class="cls-49" d="M112.07,113.52c.3,1.16-.28,1.49-1.16,1.43-.5-.03-1.49.26-2.11.06l.19-5.67c1.87,1.43,2.37,2.63,3.09,4.18Z"/>
        <path class="cls-71" d="M87.03,153.07c1.1-1.24,2.53-.72,2.95.05.46.85-.14,2.15-1.89,2.22-.76.03-2.92-.16-1.06-2.26Z"/>
      </g>
      <g>
        <path class="cls-34" d="M835.68,101.5c-.54,2.32-1.63,2.11-1.73-.39-1.76-1.26-3.34-.71-4.73,1.64,2.75-.04,4.86.41,6.34,1.37,1.89-1.9,2.53-1.04,3.06,1.3.99,4.13,4.47,7.81,9.6,7.84l42.63.2v2.68c-1.02,3.95-1.02,8.08,0,12.04v1.34s-45.62-.01-45.62-.01l-1.87-.99c-.63-1.99-1.78-3.88-3.45-5.69-1.95.14-3.58-.63-4.9-2.32-3.11-.17-3.44-1.58-.71-3.13-2.33-.7-4.02-2.52-5.04-5.47-1.51-.37-3.35-.85-5.54-1.42-.19,2.84-1.49,3.87-3.91,3.08l-.08-2.79c-.32-13.84-.55-27.79-.7-41.84-5.01-8.66,16.51-9.09,18.47-6.61,1.19,1.51-.15,33.58-.37,38.33-.01.31-.65.59-1.46.86Z"/>
        <path class="cls-41" d="M890.85,128.16c-2.04-3.34-2.04-8.7,0-12.04v12.04Z"/>
        <path class="cls-121" d="M304.08,61.02c-.12,22.94-.45,45.78-.97,68.51l-2.62-.03c-1.27-3.24-1.94-3.56-3.2-.02l-12.81-.1.14-68.76c6.81-1.02,13-1.29,19.47.39Z"/>
        <path class="cls-74" d="M838.61,105.41c-1.19.16-2.34-.71-3.06-1.3-3.54-.59-3.33-1.79.13-2.62l1.01-38.48c-5.38-2.01-11.62-.34-16.99,1.63-.1,4.07-.9,6.63,1.49,9.47.56-3.58-.2-5.48,1.18-8.17,3.44,4.77-1.72,8.2-1.81,11.84l-.81,32.97c-.44.16-1.39-.42-1.38-1.39l.28-48.91,19.68-.07.28,45.02Z"/>
        <path class="cls-105" d="M300.49,129.5l-3.2-.02c1.43-16.94.22-33.4.69-50.44.43-.74,1.54-1.65,2.52-1.62-.24,18.07,3.12,34.08,0,52.08Z"/>
        <path class="cls-31" d="M823.73,110.47c2.21.21,4.06.69,5.54,1.42,1.32-.36,2.55-.27,3.27.5,1.26,1.34,1.94,3.58,1.77,4.97.23,4.04-3.54,3.64-4.89.07-1.25,2.06-.91,4.45,1.01,7.16,3.26-1.26,4.15,2.02,1.35,3.83-7.1-1.84-11.75-7.53-11.95-14.86.63-2.03,2.22-4.03,3.91-3.08Z"/>
        <path class="cls-105" d="M303.11,129.53l.13-58.94c-1.04-3.44-.85-6.49.85-9.57l.45,68.07c0,.31-1.07.44-1.42.44Z"/>
        <path class="cls-42" d="M834.31,117.36c-.12,1,.51,2.19.71,3.13,3.45.36,3.55,5.14,1.91,7.45.27.97-.1,1.48-1.1,1.53l-4.05-1.05-1.35-3.83c-2.51-1.49-4.31-5.56-1.01-7.16l4.89-.07Z"/>
        <path class="cls-112" d="M845.23,129.49l-9.4-.03c.28-.54.64-1.06,1.1-1.53.31-2.51,1.3-4.22,2.99-5.13,2.7.61,4.28-.97,8.01-2.42-1.39,4.24-3.19,5.91-2.69,9.11Z"/>
        <path class="cls-134" d="M833.95,101.1c.12,2.39-3.31,3.53-4.73,1.64l.08-22.65c0-1,1.33-2.14,1.77-2.77.94-1.34-3.34-4.31-1.23-7.96.56-.96,2.88-1.92,4.43-.95l-.31,32.69Z"/>
        <path class="cls-31" d="M839.92,122.8c.21,1.51.24,2.98-.32,4.43-.3.78-1.78,1.12-2.67.7-1.95-2.06-1.36-4.85-1.91-7.45,1.15-.4,2.54-.6,3.97-.22,1.01.27,1.46,1.5.93,2.54Z"/>
        <path class="cls-110" d="M833.95,101.1l1.73.39-.13,2.62-6.17,2c-.38-.98-.17-2.37-.17-3.37,1.47-.88,3.06-1.44,4.73-1.64Z"/>
        <path class="cls-132" d="M829.27,111.89c-1.76.08-3.46.38-5.14,1.67-.65-1.49-.4-2.14-.4-3.09.82.21,2.5-1.14,3.48-1.07,1.42.1,1.82,1.58,2.06,2.49Z"/>
        <path class="cls-105" d="M289.75,91.94l-.29,28.21h-2.12s-.26-30.72-.26-30.72c1.27.05,2.68,1.41,2.67,2.5Z"/>
        <path class="cls-125" d="M297.68,73.82c-2.62-.78-2.58-1.92.13-2.28,1.17-2.19.68-4.59.05-7.62-.21-.98,3.39-1.18,3.28-.26-.49,3.96.24,6.08.71,10.19.14,1.22-3.22.62-4.17-.02Z"/>
        <path class="cls-2" d="M297.81,71.54c-.19.51-.12,1.64-.13,2.28-1.35-.9-2.29,2.24-2.98,2.93-1.71,1.23-2.94-1.1-2.92-2.85.01-1.53.08-3.32,2.43-2.93l3.61.57Z"/>
        <g>
          <path class="cls-87" d="M673.48,62.67c15.12.42,30.32.77,45.62,1.06-.03-2.98,8.96-3.43,9.27-.03l.11,12.19c-8.9.53-17.85,1.01-26.83,1.44l.03,52.06-12.09.11c-2.69-.75-3.65-3.44-2.89-8.08.35-1.58-.05-3.34-1.21-5.28l-1.41-.87c.41-13-.04-25.78-1.36-38.34-8.13.25-15.97-.16-23.5-1.25-1.95-1.98-1.97-9.92,2.21-8.5-7.37-6.67,8.29-6.95,12.05-4.5Z"/>
          <path class="cls-87" d="M606.44,86.91c2.29.38,2.6,2.39.93,6.02,1.05,1.03,2.76,1.52,5.13,1.46-2.21-.95-2.95-2.68-1.48-4.67,1.63-2.21,27.89-1.56,28.97,0,2.12,3.03-3.23,10.46-7.08,10.25-8.32,1.12-16.79,1.23-25.42.35l-1.17-1.45-6.61.26c-2.9-1.65-5.15-1.78-6.76-.41l2.09,1.43c-1.65,7.49,3.42,16.57,8.95,12.73l43.82.63-.05,16.06-56.79-.44c-4.45-.03-7.11-2.35-9.14-4.59l-1.48-2.9c2.78-.97,4.28-2.33,4.5-4.08-1.89-1.13-1.87-2.78.06-4.97-.75-1.9-2.52-2.47-5.33-1.71-2.16-.77-1.82-9.19.08-10.96,1.7-.79,3.48-1.11,5.33-.95-.36-3.73,1.67-3.62,2.84-.17,1.85,2.09,2.06,1.42.66-2.01.43-2.85,1.95-4.84,4.56-5.99-.59-3.85.07-4.05,2.37-.86,2.64-1.15,5.43-2.17,8.37-3.05l2.65.03Z"/>
          <path class="cls-46" d="M647.9,76.02c-14.29,1.15-29.9.99-44.19-.03-4.72,2.38-9.18,3.31-13.39,2.8-1.35,2.55-5-2.26-2.9-4.12-.76-3.8,1.11-4.02,2.97-.61.42-2.12,1.38-2.95,2.87-2.49l-1.73-2.57c-1.37,3.43-3.55,3.28-5.23.15-2.21.66-3.19,2.08-2.94,4.27,3.03.47,2.79,1.8,1.68,4,3.85-1.28,7.29,4.31,4.44,8.92,1.61,4.36,1.05,8.51-1.66,12.44l-2.84.17-2.9-.63c.58-2.28-.23-1.76-2.43,1.58l-.08,10.96c3.82.97,3.88,3.01,0,3.97l2.8,2.85c-.02-3.57,1.23-3.46,2.46-.14.8.93,1.79,1.64,2.81,1.85s.7,3.6-.18,3.47l-3.95-.56c-.62-.09-1.23,1.05-1.71,2.22-1.86-2.06-4.96-4.15-4.89-8.55l.71-43.91c1.37-1.72,2.54-3.46,3-5.65,2.99-4.03,7.4-5.73,13.25-5.8l54.05-.71-.04,16.11Z"/>
          <path class="cls-47" d="M645.34,86.43c2.63,2.32,1.88,11.03.06,13.68-3.68,1.03-9.08,1.12-12.48-.15l5.76-9.17c-9.59.66-21.32-3.19-27.02,1.44l21.5,1.39-.27,2.1-24.53.95c-1.75.07-4.92-3.66-4.08-5.19.97-1.76,2.32-2.95,2.16-4.57l38.9-.48Z"/>
          <path class="cls-33" d="M728.37,63.7c-3.06-1.83-6.27.01-9.27.03-15.22-.3-30.43-.65-45.62-1.06l-13.22.57c2.61,1.37,3.69,2.53,4.35,3.48.45.64-.45,1.87-1.29,2.59-.65.57-1.98.87-3.94-.08-1.16,2.11.04,4.39-.16,6.44,2.22.79,1.67.97-.5,1.66-.9-.14-1.44-1.15-1.41-2.57l.33-14.64h70.44c.68,1.11.28,2.8.29,3.57Z"/>
          <path class="cls-100" d="M595.7,102.79c-1.55-1.33-1.08-3.73,1.31-2.73.36-1.18.83-1.17,1.39-.04,15.37.97,31.63,1.23,46.98.09.88-3.24-.45-5.93-4.37-7.58,2.39-1.58,4.01-.43,4.43-1.48.73-1.83.18-3.96-.12-4.62.78,0,2.58-.24,2.58,1.57l.02,14.72-52.23.08Z"/>
          <path class="cls-135" d="M685.5,116.13c4.01,2.26,1.58,9.27-2.61,5.35l-.15-44.55c5.2.28-.85,10.91,3.36,28.91.76,3.23-1.51,7.33-.6,10.3Z"/>
          <path class="cls-126" d="M689.59,129.49l-6.62-.11-.08-7.91c2.19-.6,3.29-3.14,2.61-5.35,1.35.08,3.78.78,3.83,2.72l.27,10.64Z"/>
          <path class="cls-23" d="M647.9,76.02c0,.57-.11,1.37-1.18,1.36l-43.02-.14c-1.18-.29-1.14-.71.01-1.25l44.19.03Z"/>
          <path class="cls-30" d="M597.02,100.06l-1.31,2.73c-2.22,4.53,3.13,10.01,8.29,10.08.13.68.03,2.34-1.09,2.79-1.61.66-2.61.06-4.18-1.09-6.24-4.58-2.95-10.98-5.76-15.86,1.22-2.41,4.4-1.25,4.07,1.35Z"/>
          <path class="cls-47" d="M603.79,86.88c-2.85,1.11-3.78,4.24-2.61,7.82-3.57.2-5.4-2.26-5.76-4.76-2.19-1.29-2-2.61.46-3.3l7.92.24Z"/>
          <path class="cls-63" d="M603.72,75.99v1.25c-3.66-.01-6.65,1.98-8.05,5.59-.3,1.1-.77,1.05-1.38,0-2.71-.31-4.23-1.09-3.96-4.04.38-1.02,1.36-2.06,3.02-2.17l10.37-.63Z"/>
          <path class="cls-24" d="M728.49,75.89c0,.48-.08,1.47-1.3,1.47l-25.53-.03c0-.45.17-1.36,1.33-1.36l25.5-.08Z"/>
          <path class="cls-28" d="M682.73,76.92l-24,.41c-.07-.55.02-1.13.5-1.66l23.5,1.25Z"/>
          <path class="cls-85" d="M595.67,82.83c-.38.99.11,2.73.2,3.81.1,1.14-.08,2.29-.46,3.3-.92-.22-1.86.5-2.37.86-6.01.33-4.39-12.88,1.24-7.96.32-.12.93-.11,1.38,0Z"/>
          <path class="cls-111" d="M577.64,72.08c.04-2.7,1.77-4,3-5.65.71,2.44-.11,4.89-3,5.65Z"/>
          <path class="cls-102" d="M719.11,63.73l-44.2.26c-.94,0-1.52-.87-1.42-1.32l43.01-.11c1.34,0,2.24.6,2.61,1.17Z"/>
          <path class="cls-54" d="M694.61,99.2c-.64-.9,4.03,8.87,4.05,8.14-.07,1.91-.66,3.61-3.54,3.24-.43-3.7-1.95-6.45-3.83-9.68-.56-.97,2.38-3.01,3.32-1.7Z"/>
          <path class="cls-135" d="M689.44,111.06c1.37-1.02,2.83.83,2.75,1.6-.06.65-1.22,2.07-1.89,2.13-.86.09-2.95-2.19-.86-3.73Z"/>
          <path class="cls-47" d="M584.99,98.96c.81,1.49-.76,4.26-2.02,4.08-1.35-1.64-2.27-2.61-3.3-3.13.07-8.74-.05-17.17-1.42-26.75,8.64,8.57,3.13,16.63,6.74,25.8Z"/>
          <path class="cls-47" d="M590.33,78.79c2.22.41,4.28,1.48,3.96,4.04-1,.37-3.1,1.58-3.4,3.16.21,1.24,2.3,3.07,2.16,4.81.18.49.71,1.43.64,1.99-.23,2.12-4.51,1.9-4.57,4.01-.04,1.23,3.93,3.93,1.79,4.49-.46.12-1.82.38-2.47.11s-.75-1.8-.62-2.59l.18-17.53c.02-2.61-1.42-3.45-2.96-3.83-1.26-2.46-.06-4.82,2.37-2.76-.12,1.78,1.08,3.79,2.9,4.12Z"/>
          <path class="cls-30" d="M632.91,99.96l12.48.15c-.13.46-.3,1.31-1.42,1.31l-43,.05c-1.48,0-2.47-.51-2.56-1.45,2.18-.64,4.82-1.03,7.91-1.16,8.74,2,17.65,1.05,26.6,1.1Z"/>
          <path class="cls-47" d="M584.85,117.55l-2.46.14c-2.03.85-3.66-.74-2.8-2.85.34-1.13-.01-2.77,0-3.97.77-1.31.88-3.05,2.34-4.26,2.86,1.25,4.78,3.16,5.48,5.14s-1.53,4.16-2.56,5.8Z"/>
          <path class="cls-47" d="M606.32,98.86c-1.78,1.96-5.26,1.08-7.91,1.16l-1.39.04c-1.29-.65-2.67-1.12-4.07-1.35-.33-.57-.36-1.55-.07-2.05.45-.76,2.87-1.21,3.61-.48,3.29,3.24,6.75,1.97,9.82,2.68Z"/>
          <path class="cls-82" d="M590.4,74.06c-3.84-.81-2.68-5,1.13-5.06l14.95.32c5.91.12,12.03,2.97,17.72,1.48,2.09-.55,4.21-2.67,6.83-1.28,1.31.69,2.73,2.25,1.97,5.24l-42.61-.7Z"/>
          <path class="cls-84" d="M635.61,62.6c.44,1.16-.74,1.71-.97,2.07-.66,1.04-2.27-.43-2.94-.57l-39.38-.2c-.49,0-.85-.7-.73-1.07l44.01-.23Z"/>
          <path class="cls-103" d="M591.54,69l-1.13,5.06c-1.1-.02-1.9-.04-2.97.61-1.14.7-2.05,1.5-2.37,2.76-1.88-.46-1.33-2.89-1.68-4-.94-2.39.57-3.72,2.94-4.27,1.69-.69,3.67-.19,5.23-.15Z"/>
          <path class="cls-13" d="M644.76,73.74c-2.54,1.1-6.67,1.87-9.66-.69,4.67-1.48,8.09-1.54,9.64-5.24.78,1.68.88,4.37.02,5.93Z"/>
          <path class="cls-87" d="M582.39,117.69c-1.08.06-1.67.93-2.33,1.11-1.44.39-2.28-.78-1.95-2.02.22-.81.97-1.43,1.47-1.94,1.33.59,2.23,1.6,2.8,2.85Z"/>
          <path class="cls-122" d="M586.31,69.16l-2.94,4.27c-.3-.93-1.99-1.89-1.07-3.44s3.13-.47,4.01-.83Z"/>
        </g>
        <g>
          <path class="cls-87" d="M501.72,62.66c16.29.27,32.59.86,48.91,1.77,2.62.87,2.32,2.51-.9,4.93,4.12,1.65,7.75,3.89,10.91,6.72l.15,51.84-2.68,1.57-1.34.02c-3.82-2.01-4.85-6.29-3.07-12.84l-1.39-35.37c-.89-.61-2.14-1.41-3.74-2.42-.79.95-1.9.6-3.31-1.04l-4.58-1.93c-2.27,1.24-6.9,1.1-9.39.08-.44,17.82-.89,35.67-1.34,53.54l-18.65-.12-.25-52.36c-3.01-.85-6.17-.9-9.49-.13-4.83,1.24-7.5,5.73-6.77,11.37l-2.13-.69c.13-4.71-1.19-6.27-3.98-4.67,2.58,1.91-.15,7.95-3.02,5.14-2.13-1.04-2.99-3.2-2.59-6.47l-1.71-4.2c-2.81-2.05-5.3-3.87-1.17-5.42-2.39-9.2,15.09-13.08,21.56-9.31Z"/>
          <path class="cls-9" d="M566.15,73.31v56s-8.05.17-8.05.17l-.13-53.33c0-1.62-2.37-2.59-3.3-2.37-.97.23-2.73.91-3.98,1.65-.84-2.13-1.01-4.15-.97-6.09,1.64-7.67,7.32-2.96,9.65,2.23,1.51.31,3.77.89,6.77,1.73Z"/>
          <path class="cls-87" d="M485.8,99.87c.8.12,1.43.25,1.44.41.35,8.38.21,19.91-.25,28.33-.02.32-.6.6-1.34.88l-9.42-.13.07-52.06c.71-3.56,2.67-3.27,5.87.87.69,5.58.96,11.24.81,16.98,1.05,1.49,1.98,3.07,2.82,4.73Z"/>
          <path class="cls-9" d="M556.76,129.5h-8.03c-.29-16.53-.85-33.1-1.69-49.73l1.51-.9c1.23-.42,2.53-.94,3.72-1.02,1.7-.11,2.69,1.93,2.75,3.91l.74,26.19c.14,5.07,1.37,8.45-.11,13.77-.53,1.92,1.79,5.86,1.11,7.78Z"/>
          <path class="cls-65" d="M494.76,88.29c.69,1.83.24,4.46.25,6.42-.41,11.58-.85,23.18-1.31,34.82l-5.37-.03c-.75-.19-1.33-.38-1.34-.6-.5-10.3-.29-21.89.94-32.03l-1.04-4.99c2.47-4.44,3.06-7.42,1.77-8.96l.26-5.29c4.7-.33,3.58,4.63,5.85,10.65Z"/>
          <path class="cls-8" d="M556.86,62.91c-.65,1.27-2.83.93-3.89.02.97,3.26-1.1,3.43-6.2.5-15.1.23-30.11-.03-45.05-.77-3.14,0-7.12-1.34-10.66.07l-8.73,3.46c-.35,1.73-.29,4.73-2.16,5.78-1.96,3.2-3.16,1.99-2.68-1.46,1.95-6.07,8.2-10.13,15.57-10.12l56.4.04c2.71,0,6.2.94,7.41,2.48Z"/>
          <path class="cls-65" d="M480.17,71.97c-2.69,4.28,7.67.94,5.46,16.09,1.03.18,2.74,8.02,2.67,8.94-.11,1.56-.92,2.45-2.5,2.86-1.63,0-3.49-.63-4.37-1.74-.95-1.19-1.13-2.78-1.16-4.65l-.2-14.78c-.02-1.53-2.8-1.78-3.76-1.41,0-2.43.43-4.42,1.18-6.78l2.68,1.46Z"/>
          <path class="cls-134" d="M488.33,129.5l-2.68-.02.16-29.61c.02-3.94-.75-7.81-.17-11.8,2.33-.8,2.91-2.79,3.02-5.14.71-.07,2.23-.1,2.35.62.71,4.31-2.87,7-2.68,9.11.09.99,1.82,2.39,2.58,3.94.55,1.11-2.77,3.59-2.76,4.84l.18,28.07Z"/>
          <path class="cls-38" d="M548.55,78.87l.17,50.63c-.52.1-1.39-.48-1.38-1.41l.23-41.48c.03-4.79-2.35-9.26-6.93-9.26-1.17-.43-1.14-.91.02-1.44,2.92-.02,6.04.51,7.89,2.96Z"/>
          <path class="cls-83" d="M531.26,77.33l.03,50.83c0,1.17-.91,1.38-1.37,1.37v-52.11c0-.95.82-1.51,1.34-1.43,1.17.38,1.15.83,0,1.34Z"/>
          <path class="cls-102" d="M552.97,62.93c4.78,1.45,9.16,4.45,13.14,9,.18.37.04,1.04.04,1.38-2.15,1.5-4.33-.86-7.28.53-1.66-.82-3.15-3.82-4.2-6.89-1.96.23-3.46,1.63-4.95,2.4.02-.88.55-2.08.17-3.25-.36-1.09-2.14-1.84-4.02-1.86l-42.71-.34c-.95,0-1.48-.72-1.44-1.24l45.48-.11c1.86,0,4.1,1.7,5.77.38Z"/>
          <path class="cls-9" d="M556.86,62.91c4.51.3,7.42,5.19,9.25,9.02-7.79.67-5.69-7.25-10.37-7.4l-1.8-.06c-.6-.02-1.03-.94-.96-1.54.82-.44,2.88-.09,3.89-.02Z"/>
          <path class="cls-53" d="M493.7,129.53l.02-33.41c0-.93.78-1.48,1.29-1.41l.06,33.47c0,1.14-.92,1.35-1.37,1.35Z"/>
          <polygon class="cls-107" points="540.66 75.91 540.64 77.35 531.26 77.33 531.26 75.99 540.66 75.91"/>
          <path class="cls-3" d="M511.02,77.04l-9.49-.13c2.46-.63,8.13-2.41,9.49.13Z"/>
          <path class="cls-109" d="M563.78,98.78l-.32-23.46c.19-.57.68-.82,1.01-.84l.33,23.58c-.24.52-.72.71-1.03.71Z"/>
        </g>
        <g>
          <path class="cls-97" d="M269.3,83.42c-1.74,4.83-3.57,9.64-5.49,14.41-2.55.14-4.61-1.11-6.17-3.75-4.75-1.41-5.79-3.59-3.15-6.53-2.53-1.19-3.18-3.81-1.97-7.87-.48-5.75,1.53-11.69,3.67-17.01,2.48-.65,2.72.46.38,1.58,3.72.28,5.03,2.07,6.79,5.14-.67-2.31-.44-4.24.7-5.79-3.02-.45-5.6-1.2-7.76-2.24-.19-.68.35-1.36,1.29-1.36l17.37.11-5.66,23.32Z"/>
          <path class="cls-51" d="M225.68,73.34c.56,4.09-.77,5.04-3.12,1.52-1.07-.07-1.74-1.13-2.01-3.19l-3.23.36c1.51,1.7,5.44,9,2.04,7.47.67.55,1.34,1.11,1.99,1.68.55.48-2.32,12.12-2.92,14.24,2.45,1.81,2.93,3.23.3,4.93-1.43,3.49-.4,6.21,2.34,8.01.74,5.52-.27,7.52-3.04,6-3.02-4.68-4.86-11.15-4.52-16.95-1.01-7.53-2.99-14.65-5.92-21.36l-3.54-15.47c6.85-1.04,12.96-.88,19.26-.13l2.37,12.88Z"/>
          <path class="cls-97" d="M258.91,101.53c-.42,2.1,1.41,6.12,2.25,3.9,1.85-3.31,2.77-2.03,2.44,1.44-2.12,8.72-6.8,17.27-15.28,21.53l-1.56-.98c.92-7.24-.45-11.91-4.12-14.01-1.22.54-1.57.12-1.09-1.19,3.54-3.98,4.48-9.69,6.57-14.45l1.04-1.54c-.67-5.29,3.9-9.88,4.85-3.88,4.64,1.16,10.02,5.51,4.91,9.18Z"/>
          <path class="cls-31" d="M241.54,112.22c.25.42.66.85,1.09,1.19,1.18.22,1.16.6.02,1.13-3.28,1.44-6.64,3.15-10.1,5.13-1.51-2.78-2.41-1.63-2.7,3.44l-1.86,1.03-.76.85-6.26-6.07-2.94-4.55c4.11-2.07-1.56-6.04-2.22-13.41.93-.71,2.07-.34,2.92-.59,2.47-.4,4.82-.29,7.05.31-6.79-.89-7.44-5.49-1.97-13.81-2.69-2.91-4.84-6.97-1.25-9.76-1.62-.79-1.72-1.72,0-2.24,1.14-.14,2.28-.48,3.12-1.52l4.95,20.03c2.25,9.11,3.05,19.48,10.91,18.85Z"/>
          <path class="cls-57" d="M269.3,83.42l-5.71,23.45-2.44-1.44c-2.05-.36-4.05-1.9-2.25-3.9-.85-1.98-.5-4.78-1.59-6.16-1.59-2.02-4.83-4.31-6.83-2.43-.77.73-.36,2.59-.27,3.13.16.9-1.04,1.7-2.12,1.71.22-6.18,1.5-12.68,4.42-18.09.8,1.7.78,3.54,1.68,5.08,3.19-.99,2.85,1.12,2.94,2.29.17,2.15-1.13,3.76-3.27,5.02,6.87.25,8.92,5.47,10.83,2.33,1.29-2.11-4.01-3.95-.93-6.13,5.64,2.88,1.81-4.24,3.76-5.51.4-.26,1.23.17,1.76.67Z"/>
          <path class="cls-94" d="M237.46,129.55c-2.7.09-4.52-.13-6.87-1.1-1.95-1.51-2.32-2.67.39-2.79l1.03-.75c-4.03-4-.49-6.82,4.35-6.51.61-2.97,4.52-4.06,6.29-1.72,4.48-6.37,5.02,7.94,2.8,11.22-2.94-.25-5.6.3-7.99,1.66Z"/>
          <path class="cls-50" d="M248.31,128.41c-3.41,1.71-7.08,1.02-10.85,1.14.49-2.53,3.3-3.64,6.89-2.84l.73-9.96c-1.17.11-1.79.08-2.42-.08-2.58-.51-2.59-1.58-.01-2.12l-.02-1.13c.99-.7,2.27-.96,3.14-.66.98.34,2.58,2.34,2.28,3.51-1.21,4.77,2.12,6.55.26,12.15Z"/>
          <path class="cls-36" d="M227.98,124.14c2.7-2.07,2.99-1.86,3,1.52l-.39,2.79c-4.38-1.8-7.11-5.63-9.63-9.53l7.02,5.22Z"/>
          <path class="cls-76" d="M213.5,97.43l-5.92-21.36c4.38.42,2.34,5.57,3.08,7.57,2.06,5.51,3.12,8.8,2.83,13.79Z"/>
          <path class="cls-119" d="M264.06,63.59c-.17,4.63-5.01,3.27-7.49.65-.34-.49-.35-1.23-.38-1.58-.03-.41.01-1.13.11-1.31,3.28-.65,5.61-.35,7.76,2.24Z"/>
          <path class="cls-114" d="M264.06,63.59c2.37,2.86,3.38,8.3.77,12.65l-8.26-12,7.49-.65Z"/>
          <path class="cls-86" d="M222.55,77.11c-.02,4.17,1.04,5.31,2.99,7.51,3.54,4-4.57,8.74-2.51,12.9.3.61.93,1.39,2.23.55.58-.37,1.42-1.41,2.43-1.55,1.29,1.49.86,3.91.32,6.7-.23,1.21-3.56.8-4.68-1.93-.88,1.68-.49,3.49-2.62,5.47l-1.99-6.41c-.28-.91-.35-2.06-1.23-2.33-.63-.19-1.61.47-3.19.38,3.3-5.73,4.53-20.88,5.12-18.74l-2.1-7.65c1.84-2.82,3.59-1.13,5.23,5.08Z"/>
          <path class="cls-39" d="M222.56,74.87v2.24c-.45-.22-1.43-.01-1.79-.26-.98-.68-.59-3.26-1.67-4.59-.3-.37-1.21-.51-1.77-.22-.26-.96.2-2.15.9-2.42.48-.19,2.62-.93,3.29-.39,1.27,1.05,1.06,3.95,1.05,5.64Z"/>
          <path class="cls-130" d="M258.91,101.53c.45,1.06,2.6,2.08,2.25,3.9.72.87.56,2.68-.96,2.1-.73-1.68-2.48-2.47-3.23-2.24-1.62.49-1.42,3.79-3.4,6.26-.65.81-2.95.98-3.67,0,1.23-4.1,4.93-8.66,9.01-10.02Z"/>
          <path class="cls-93" d="M242.65,114.55v2.12c-1.31-.21-4.49.8-3.62,2.72.75,1.66.83,3.22-.17,4-.53.42-2.35.52-2.6-.71-.3-1.46-.86-2.08-1.74-1.99-4.47.45.09,2.78-.64,5.51-.25.95-1.41.96-1.81.29-.17-.29-.72-.79-1.08-.84-1.22-.17-2.21-.84-3-1.52.2-2.73.29-5.26-1.32-8.22l-4.49-.65c1.1-3.04,1.22-4.39.55-7.6l9.7,2.81c-1.32,2.78-2.3,4.67,0,7.41,2.53-4.31,6.23-4.29,10.22-3.34Z"/>
        </g>
        <g>
          <path class="cls-87" d="M328.75,65.52c2.59-.29,3.92.2,3.9,2.77,27.85-.13,41.78-.19,41.78-.19l2.29,2.35c-.31-1.92.09-2.54,1.55-1.15l2.7-2.69c.42-2.57,1.48-2.51,1.94.08,1.6.08,1.54,2.53.26,3.39-.74,2.05-2.58,5.38-4.88,5.87-12.22.84-24.78,1.12-37.68.85-2.87.06-5.64,1.85-6.57,4.54l-1.76,2.63c.39,20.42.58,30.64.58,30.64,2.28.09,3.53.45,3.68,3.17,1.19-1.22,3.3-2.31,5.51-3.07-1.16-.39-1.14-.83.02-1.32l42.88.1-.04,15.78c-1.72.49-2.86.16-3.93.24-.48-.96-.93-.91-1.34.1l-50.86-.53c-9.06-3.78-11.18-5.87-13.31-15.29-1.03-11.31-1.09-23.07-.19-35.28l1.58-1.23c-.67-4.78.57-12.63,6.44-11.55.69-2.39,5.2-2.91,5.44-.2Z"/>
          <path class="cls-21" d="M385.04,76c-.75.98-2.1,1.01-2.71,0-2.18-1.71-1.47-4.8.85-5.93l-.26-3.39c-2.28-2.56-3.96-2.77-5.03-.62l-2.2-2.09c-14.7-.44-29.48-.9-44.35-1.36-.38,1.17-.83,1.15-1.34,0-.93,1.92-4.74,2.03-5.36,0,5.51-2.71,12.04-2.74,18.77-2.71l41.45.17.18,15.93Z"/>
          <path class="cls-37" d="M334.05,81.33c-2.19,8.64-2.27,24.33.4,27.89,1.42,1.89,4.62,4.14,7.63,4.15l-.02,1.32c-1.91,1.18-3.75,2.21-5.51,3.07-1.71-.43-6.36.14-6.27-3.1.32-10.36,1.85-20.3.83-30.77-.15-1.54,1.06-2.63,2.94-2.56Z"/>
          <path class="cls-46" d="M321.87,63.89c2.29-.85,3-.15,1.44,1.83-9.46,3.89-1.22,21.11-5.08,35.53-4.49-7.19,1.37-18.31-2.94-22.76l-.51-5.12c.11-4.31,2.86-8.87,7.09-9.48Z"/>
          <path class="cls-62" d="M328.79,129.07c-6.27-.07-14.01-5.67-13.6-11.34-.71-1.39-1.19-3.24.29-3.95,1.53,1.1,4.02,2.19,4.45,3.62.39,1.29-1.25,5.1-.34,6.19,3.4.82,8.8,2.1,9.2,5.48Z"/>
          <path class="cls-91" d="M378.3,75.94c1.23-3.23,3.18-3.59,4.03.06h2.71c0,.44-.19,1.37-1.37,1.36l-43.06-.58,37.68-.85Z"/>
          <path class="cls-92" d="M315.29,78.49l.19,35.28-.29,3.95c-.74-.36-1.47-1.43-1.44-2.91l1.03-41.45.51,5.12Z"/>
          <path class="cls-58" d="M324.64,62.6h5.36c3.43,1.74,2.6,3.32-1.25,2.92-1.89-1.12-3.53.31-5.44.2l-1.44-1.83c.73-.36,1.74-1.29,2.77-1.29Z"/>
          <path class="cls-22" d="M380.99,129.49l-1.34.1v-8.79c.27-.5.73-.68.87-.69.91,3.09.42,6.3.47,9.38Z"/>
          <path class="cls-46" d="M375.69,63.97c2.44.37,2.79,2.53,1.04,6.47-5.97,1.23-12.03-.35-18.18-.25-5.86.09-11.54,1.24-17.87.39s-12.51,1.26-16.82,5.15c-.73-2.68-.19-6.02,1.75-7.55.79.22,2.23,1.13,2.57,1.43.98.85,2.46-.35,1.72-1.9-.3-.62-.45-1.18-1.16-2.19.69-.79,1.11-1.88,1.25-2.91h1.34c14.78.48,29.56.93,44.35,1.36Z"/>
          <path class="cls-26" d="M382.92,66.68l-1.94-.08c-.84.72-1.74,1.62-2.7,2.69-.11.81-.91,1.02-1.55,1.15-.95-1.92-1.27-4.23-1.04-6.47,2.28-.14,4.7-1.73,7.89-.99-.8,1.29-.75,2.52-.66,3.7Z"/>
          <path class="cls-26" d="M383.18,70.07c.16,2.07.4,4.15-.85,5.93l-4.03-.06c.3-3.06,1.38-5.95,4.88-5.87Z"/>
          <path class="cls-89" d="M330.6,121.52c.76-.44,2.4,1.09,2.59,1.86.18.71.12,2.43-.97,3.34-.58.49-1.83-.57-2.38-1.78-.4-.89-2.12-1.77.75-3.42Z"/>
          <path class="cls-69" d="M342.05,114.69c-.73.86-1.62,1.63-2.13,2.56-1.12,2.06-2.3.78-3.39.51.46-1.26.27-2.08.92-2.5,1.22-.77,3.77-.74,4.59-.58Z"/>
          <path class="cls-21" d="M380.97,66.6c.21.54.31,1.49.04,2.04-.47.93-1.8,1.13-2.73.65.1-.73.43-2.29,1.14-3.26.35-.48,1.3-1.13,1.56.57Z"/>
          <path class="cls-14" d="M375.69,63.97l-41.73.07c-1.47,0-2.48-.56-2.62-1.42l43.03-.03c1.06,0,1.38.77,1.32,1.39Z"/>
        </g>
        <g>
          <path class="cls-6" d="M782.41,79.59c1.56,6.5,3.79,8.91,6.69,7.2.81-9.14,3.43-11.88,7.86-8.22.92,1.87.71,4.17,1.11,5.9-1.99,2.9-2,6.69,0,11.36,1.54-.37,2.63.58,3.26,2.83l8.11,30.59-8.61.22c-2.39-.17-2.62-1.35-2.61-3.6.43,1.73.57,2.88-1.42,3.6-1.76,0-5.66.84-6.51-1.22l-4.06-21.33-13.77-1.6-1.02-1.23c-3.07-2.56-1.41-5.1,2.58-5.21-2-3.21,1.5-6.82,4.56-8.06-1.71-12.19-6.65-13.32-9.61-.67l-2.98.89-1.17,3.51c2.36,2.26,4.61,4.51,6.74,6.75l-1.45,2.82c-1.2,2.29-7.01,1.99-9.65,1.33-4.01-.34-4.42-12.22-3.72-15.29.79-3.48,2.17-4.93,5.89-4.18.98-10.5,10.14-13.98,19.27-9.42,1.07.53,1.07,1.77.52,3.03Z"/>
          <path class="cls-66" d="M764.91,63.82c1.08.55.95.93-.3,1.16,2.54,6.27,6.83,8.48,13.09,5.11,3.03,1.36,5.89,2.82,8.57,4.4,2.48-.45,2.93,1.61.38,2.4-.26,2.76-.74,2.9-3.4,2.71.08,1.2-.21,1.14-.83-.01-3.47-3.47-11-5.13-14.1-.89-2.51,3.43-2.65,7.81-4.23,11.22-1.78-1.69-4.15-1.97-4.74-.93.26,5.78.29,11.79,1.1,16.46,1.22.17,1.28.61.23,1.31l.25,3.89-2.28,2.17c-.43,4.69-2.05,6.77-4.87,6.24,1.89,3,.1,4-2.46,1.44-6.92-3.83-8.23-8.72-6.18-16.19,0,0,2.43-9.48,7.3-28.44,2.89-5.12,6.48-9.7,10.79-13.74,2.89-.61,3.75-.71,1.69,1.69Z"/>
          <path class="cls-133" d="M751.31,120.51c2.8,1.58,3.62,1.1,2.46-1.44,1.89-2.78,3.02-5.94,3.96-9.78l3.2,1.36-3.64,18.14c-3.11,1.16-5.89.72-8.61.72-2.32-.01-3.42-1.71-3.29-5.08-.42,3.86-2.75,4.4-6.21,5.1-1.22,0-1.87-1.31-.69-2.21l10.95-45.15c.66-2.73,2.24-4.48,2.99-6.3-.81,3.83.35,7.6,1.57,11.5-2.86-.59-4.77-3.33-4.06-1.1,1.08,3.41-7.47,21.13-2.36,27.09l.85,2.19c.28.72,1.22-.51,2.78-2.21.34,2.9.54,5.01.1,7.16Z"/>
          <path class="cls-6" d="M795.74,76.07c-3.52,4.92-8.45,1.54-7.7-3.38-2.6-2.89-4.9-4.26-6.88-4.11-.98-5.03,6.92,2.55,5.1,5.91-3.4,1.61-6.19-1.21-9.62-1.92-2.1-.41-5.83,3.95-8.8,1.55.11-2.44-1.17-5.25-4.88-5.16-.24-1.8.65-3,1.64-3.98,1.61-1.5,2.21-1.07,3.53.25.17.17-2.56.13-3.23-1.4.24-.93-.66-1.4-1.69-1.69,7.13-3.41,17.26-3.6,24.3,1.84,4.04,3.13,6.3,8.15,8.22,12.1Z"/>
          <path class="cls-58" d="M795.74,76.07l1.22,2.5c-.59-.31-1.53-1.1-2.1-.97-.76.18-1.33,2.06-1.75,2.6-5.77,7.2-1.19,12.55-2.19,14.68-.48,1.02-3.86,1.59-4.06.57-1.94-9.56-7.11-12.99-4.44-15.86h.83c2.46,1.02,3.59.11,3.4-2.7l-.38-2.4c-.35-2.65.24-3.25,1.77-1.8,1.64,2.44,4.77,4.38,7.7,3.38Z"/>
          <path class="cls-49" d="M790.28,128.24c-2.8-6.78-3.44-14-5.51-21.91l-24.1.43-.23-1.31,9.65-1.33c.34-1.18.78-1.18,1.33-.04,3.87-.13,7.57.6,11.92,1.59,1.6-1.19,2.78-2.11,4.01-2.22-.02,10.83,4.4,17.88,2.92,24.78Z"/>
          <path class="cls-78" d="M798.07,84.47l3.25,14.19c-1.83-.55-4.44-.29-4.73.93,1.53,1.5,3,.35,3.59.33s1.16,1.96.66,2.44c-1.54-.75-2.8-.93-3.17-.47l-2.94,3.66c-1.22-2.3.42-4.86,1.52-7.37-2.22-4.89-3.08-10.19-.69-15.47,1.33.43,1.89,1.26,2.5,1.76Z"/>
          <path class="cls-68" d="M748.68,129.52l-9.5.02c4.06-2.68,4.01-7.01,3.41-12.78,5.79,2.86,5.68,8.33,6.1,12.76Z"/>
          <path class="cls-52" d="M800.82,129.47h-4.03c-.23-4.78-1.44-9.13,1.27-12.64.55-.7,2.53-.04,3.41.72,1.48,1.27-3.66,4.2-.66,11.92Z"/>
          <path class="cls-18" d="M763.22,62.13c-2.95,4.79-8.69,7.87-6.99,14.52-.51.73-2.31-.02-3.8-.78,2.31-5.58,5.12-11.03,10.79-13.74Z"/>
          <path class="cls-98" d="M778.57,90.82c.9,2.19-.81,3.97-3.64,6.48l8.2,2.1c-5.82,4.09-12.59.01-11.71,4.69l-1.33.04c-1.36-1.92-2.17-5.73-6.11-4.08-.4-1.74.4-3.51.82-5.49-1.88-1.37-.22-2.58,4.96-3.63l8.8-.1Z"/>
          <path class="cls-66" d="M765.99,91.04c1.21.01,2.29-.12,3.79-.12-.46,1.88.7,4.59-1.76,6.12-.33-.29-.87-2.92-1.23-3.59-.3-.55-1.67.91-1.97,1.1-1.32-.65-2.72-.78-4.27-2.76,2.6-.85,4.08-.76,5.44-.75Z"/>
          <path class="cls-98" d="M782.35,98.11c-2.14-1.57-2.07-3.77-1.1-6.01,1.71.83,3.85,2.8,1.1,6.01Z"/>
          <path class="cls-133" d="M751.26,109.62c.25-3.7.47-6.3-1.3-9.49,1.38.51,2.31.95,2.83.61l2.95-1.95c1.99,3.21.46,9.33-4.47,10.83Z"/>
          <path class="cls-45" d="M764.61,64.98l.3-1.16c.52-.74,2.89-1.43,4.22-1.12.93.22.63,2.11.62,3.37l4.6-.31c1.39-.09,2.63,1.91,1.83,3.04-8.52,2.92-7.82-1.83-11.58-3.83Z"/>
          <path class="cls-6" d="M786.64,76.89c3.02,2,3.68,6.78.95,10.47-2.13-3.25-2.53-5.68-4.35-7.76-.03-.61.16-1.37.49-1.79.51-.64,2.02-1.08,2.91-.92Z"/>
          <path class="cls-88" d="M751.31,120.51l2.46-1.44c.8,0,2.06.08,2.52.95.3,2-1.11,6.09-2.74,6.07-2.58-.04-2.59-3.87-2.24-5.58Z"/>
          <path class="cls-116" d="M788.04,72.69c-.59,1.01-1.17,1.5-1.77,1.8-.49-3.15-3.8-4.62-7.69-6.26l5.74-5.22c.94,4.51,2.1,7.25,3.73,9.68Z"/>
        </g>
        <path class="cls-88" d="M829.42,117.42c.48,2.36,2.65,4.53,1.01,7.16l-5.83-2.32c-1.41-2.86,2.69-4.82,4.83-4.84Z"/>
        <g>
          <path class="cls-87" d="M453.67,114.86c.93-2.85,2.58-5.08,4.94-6.7,2.18-4.06,6.61-1.59,5.33,2.83,1.11,1.81-.94,7.85-3.91,6.6-1.99.25-4.06.79-6.21,1.63-3.76,3.87-7.84,7.25-12.24,10.15l-28.53.27c-1.79.02-3.12-1.01-4.05-1.65-1.52-1.95-1.24-7.41,1.77-7.66,1.34-3.91,2.98-4.91,4.93-3.01.58-1.37,1.33-2.54,2.79-2.75-3.8-3.42-.6-2.64,3-1.15l1.12-2.69c9.32,1.35,17.29,0,23.9-4.06l3.76.32c.72,2.88,1.85,5.5,3.39,7.85Z"/>
          <path class="cls-16" d="M418.08,62.81c1.2-.02,1.15.31,0,.94l-.43,1.73c3.61-.6,5.5.18,3.56,3.85-3.91.95-8.42,4.73-11.47,7.43-2.51,2.22-1.98,3.26,1,3.44.52-3.33,6.17-3.12,3.54.96l-2.42,6.47.23,16.27c1.15,2.03,2.09,4.57,2.82,7.6,2.03.85,3.22,1.87,3.57,3.07.21.83.17,2.15-.56,2.69-.47.35-1.77.16-2.23.06-1.82.41-3.48-.54-4.99-2.85-1.39-3.41-2.03-3.08-1.93.99-1.81.65-3.12,2.29-3.94,4.93,1.01,3.52-.5,4.25-3.74,2.49-.59-1.84-1.37-2.97-2.35-3.4-2.37-1.12-3.57-4.08-3.6-8.88,3.53-2.49,4.74-4.65,3.63-6.48-2.07,3.05-2.84.08-1.68-2.73-1.56-.15-1.47-1.93-.32-2.91l1.01-4.08c-1.38-5.53-2.05-11.21-2.04-17.06l-.73-2.7c.91.25,1.19-.5,1.08-.76,1.75-.06,2.12-.77,1.08-2.12l1.4-3.74c1.08-2.1,3.35-4.53,5.26-2.76,2.31-3.73,10.82-5.1,14.24-2.47Z"/>
          <path class="cls-9" d="M465.64,76.01l-.16,34.71c-.19,2.18-.64,2.28-1.54.26-1.37-1.52-3.25-2.63-5.33-2.83l-2.83-.56c.73,3.48.03,5.9-2.11,7.26-3.49.26-2.74-3.61-7.16-8.17-1.04-.13-2.56-.41-2.69-1.18-.51-3.09-.41-12.06-.07-15.59-.81-3.88.07-6.32,2.65-7.31,2.42-1.61,5.94-1.07,7.18,1.57.32-2.66,3.39-4.38,4.38-1.52l.85-.9c-1.48-2.15.58-5.75,2.71-7.09.48-.81.94-.75,1.37.12.97-2.77,1.96-1.02,2.73,1.22Z"/>
          <path class="cls-48" d="M456.08,62.69c-.51,1.13-.98,1.07-1.41-.12-1.41,3.39-5.59,4.08-6.6.07-1.16,2.99-6.19,3.44-8.03.31-7.19.76-14.92.9-21.96-.15l-11.77.13c1.66,1.86,3.22,1.4,4.15,1.66,1.48.41,1.26,2.25.68,3.28-.79,1.39-2.59,1.91-4.01.49-1.14-1.14-1.95-2.59-3.29-3.09-1.77-.31-1.34-1.29,1.28-2.95,8.76-3.1,18.22-2.35,28.22-2.38,8.09-.03,15.99-.59,22.74,2.74Z"/>
          <path class="cls-110" d="M395.74,77.35l.56,11.8c1.48,3.47,1.63,6.59.46,9.34.27.84.45,1.96.32,2.91.51,2.79.06,4.58-1.35,5.37,3.43.15,2.03,2.78-.6,3.84l3.6,8.88c1.21-.17,1.99.96,2.35,3.4,2.11-.41,3.74-.93,5.44-2.31-1.68-6.47,3.63-9.85,4.23-.24-.81,1.87.8,5.7-1.77,7.66-6.17.94-14.05-4.74-14.04-12.57l.06-40.76.73,2.7Z"/>
          <path class="cls-60" d="M460.02,117.58c1.95,1.64,1.53,2.81-1.01,2.86-1.1,2.09-2.04,4.08-2.82,5.98-3.92.37-7.51,1.37-10.75,3l-3.88-.06c-.34-4.22,4.89-5.12,6.55-7.4,2.41-3.31,3.65-5.63,8.42-5.25.5-.92,1.3-1.65,1.73-1.91s2.05.19,2.17.68-.41,1.76-.41,2.1Z"/>
          <path class="cls-6" d="M460.33,65.17c3.38,3.65,3.94,6.24,1.68,7.77-11.64,5.63-19.39-4.13-7.34-10.37l1.41.12c2.19.19,3.04,1.73,4.25,2.47Z"/>
          <path class="cls-20" d="M459.01,120.44c2.3.21,2.44,2,1.36,3.79-3.77,3.83-9.23,5.28-14.92,5.19.52-1.17,1.18-2.24,1.86-2.87,2.71-2.51,6.29,1.1,8.38-.69,1.53-1.31-.8-2.61-1.32-3.39-.37-2.05,3.22-3.09,4.65-2.03Z"/>
          <path class="cls-44" d="M460.37,124.23c-1.44-1.24-1.52-2.59-1.36-3.79.14-1.02.49-1.95,1.01-2.86l3.91-6.6,1.54-.26c-.02,5.33-1.46,9.8-5.11,13.51Z"/>
          <path class="cls-27" d="M396.09,73.89c-1.03-2.57,1.56-4.38,2.48-5.86-.55.54-.45,2.89.1,3.19l3.77,2.01c1,2.06-1.61,3.26-2.88,2.44-1.01-.65-2.29-.94-3.48-1.78Z"/>
          <path class="cls-77" d="M465.64,76.01l-2.73-1.22c-1.78-.37-2.08-.98-.9-1.85.75-2.75-.73-5.14-1.68-7.77,3.55,2.2,5.33,6.3,5.31,10.84Z"/>
          <path class="cls-56" d="M405.12,62.33l-1.28,2.95c-1.84.27-4.02,1.53-5.26,2.76.43-3.69,3.24-4.53,6.54-5.7Z"/>
          <path class="cls-44" d="M458.61,108.15c.07,1.56.2,3.4-.77,5.05-.67,1.15-2.68,1.54-4.17,1.65-.23-3.02-1.37-7.19.21-10.15.92-1.74,3.72-.41,3.84.93.06.72.65,1.46.89,2.53Z"/>
          <path class="cls-99" d="M414.66,104.43c.02,2.32-1.64,5.13,2.52,6.88,1.24.52,3.09,1.32,4.3,2.12l-2.09-.17c-.43-.04-1.02.89-.91,1.32-1.35-.44-4.63-.9-4.99-2.88l-1.4-7.79c.47-1.09.78-.96.93.29.12-2.61,1.2-2.45,1.65.23Z"/>
          <path class="cls-136" d="M418.14,126.04c-2.47-.04-4.22-.1-5.54-.55-.96-.32-.8-4.02.21-3.89,3.09.4,4.2,2.92,5.33,4.44Z"/>
          <path class="cls-136" d="M415.69,117.33c-1.75,1.21-2.74,3.5-4.93,3.01-1.36-3.13-1.38-5.08-.06-5.86.89-1.04,2.35-.9,3.3.16.79.89,1.4,1.75,1.69,2.69Z"/>
          <path class="cls-6" d="M448.06,62.65c3.15.06,3.52.74,2.53,3.49-.49,1.36-11.04,8.93-13.06,6.36-5.63.85-11.34,1.15-17.15.89l-4.73,2.57c.17,1.93-1.22,2.83-4.18,2.69l-.72,1.55c-.55.48-1.56,1.41-2.25,1.33-1.45-.18-1.59-1.22-1.62-2.17-.04-1.2.36-1.11.96-1.9,3.26-4.99,7.94-6.77,12.28-9.99-1.37-1.17-3.06-1.26-3.59-1.5-.37-.16-.29-1.32.11-1.63.36-.28,1.01-.49,1.44-.59,7.25-.15,14.57-.42,21.95-.8,2.51-.77,5.43-.28,8.03-.31Z"/>
          <path class="cls-99" d="M410.7,114.47c-.12,1.53,1,3.69.06,5.86-1.56-.4-1.68-2.75-1.77-4.02-2.7-.37-2.41,2.69-2.46,4.26-.38,2.56-1.38,2.44-1.7-.18-.11-2.72,2.05-5.35,2.67-8.35,1.07-5.18-8.86-16.5.18-15.1-1.24,6.96,5.76,9.28,3.02,17.53Z"/>
          <path class="cls-70" d="M414.28,81.16l.23,4.1c-.44,6.49-.94,12.8-1.5,18.94l-.93-.29-.56-13.49c-.82,1.15-1.76,2.56-2.88,2.69-3.77.44-4.1-5.92-8.3-8.5-.93-.57-.99-2.85-.8-3.92.1-.55,2.34-.65,2.45-.11.76,3.66,3.78,8.52,8.11,7.13,1.1-2.11,2.63-5.15,4.16-6.54Z"/>
          <path class="cls-99" d="M396.76,98.48c-2.14-6.76-1.47-14.18-1.02-21.14,3.31,3.92-1.22,10.73,3.91,16.48.45,1.37-1.77,3.84-2.89,4.66Z"/>
          <path class="cls-67" d="M415.65,75.96c1.02-3.04,4.88-3.61,5.6-.1,1.19.33,1.19.78.05,1.33-3.55-.02-4.62,1.8-7.01,3.97.14-1.04-.92-1.36-1.66-1.2-.42.09-1.4-.18-1.88.24-1.35.13-1.77-.93-.9-1.97,1.73-2.06,3.85-2.24,5.8-2.27Z"/>
          <path class="cls-11" d="M440.04,62.96c-7.09,2.17-14.66.64-21.95.8v-.94s21.95.15,21.95.15Z"/>
          <path class="cls-99" d="M395.13,110.6l.6-3.84c.29-1.43,1.61-2.27,3.04-2.64,1.32-.23,2.77-.28,3.57.47-2,3.93-3.76,6.17-7.21,6.01Z"/>
          <path class="cls-73" d="M406.53,120.57c-.06,2.01-.76,3.57-.24,6.18l-5.2-3.86,3.74-2.49,1.7.18Z"/>
          <path class="cls-40" d="M409.78,70.91c.4,1.01-.72,1.7-1.37,2.43-1.16,1.3-3.11,1.19-4.41-.2-.53-1.47.22-2.07.78-2.26,1.32-.43,2.79-.24,4.99.03Z"/>
          <path class="cls-99" d="M401.09,122.88c-1.49-1.11-1.66-1.7-2.35-3.4.55-.6,1.03-1.69,1.16-2.66.09-.64,2.11-.52,2.36,1.33-.44,1.14-1.98,2.86-1.17,4.73Z"/>
          <path class="cls-27" d="M398.77,104.12c-.03.55-.16,1.29-.53,1.82-.5.71-1.59.99-2.51.82.29-1.88-.07-3.9,1.35-5.37-.12.45-.08,1.43.12,1.87s1.11.94,1.56.86Z"/>
          <path class="cls-47" d="M454.66,62.57c.13,4.52-4.98,5.82-3.47,8.56,1,1.81,6.22-.32,10.81,1.81l.9,1.85-1.37-.12c-1.97,2.02-3.35,4.44-4.14,7.26-1.5-.01-2.85-.28-4.05-.81-4.61,2.7-6.69,1.07-6.03-4.74-2.56,1.64-4.64,1.16-7.28-.44-5.37,1.18-13.12,1.03-18.79-.08l-5.6.1c-.25-8.48,10.53-3.45,21.81-6.1.99-.23,3.38,1.22,4.13.68s1.59-2.85,2.48-3.28c1.69-.81,3.03-.95,3.96-1.59.83-.57.74-2.24.03-3.02l6.6-.07Z"/>
          <path class="cls-131" d="M453.34,81.12c4.04.22,3.4,1.22.24,3.05-.29.27-.73.76-1.06.58l-1.92-1.08c-.55-.31-1.47,1.22-2.04,1.02-.63-.22-1.55-1.92-2.17-2.09-.01-2.49-4.09-5.29-6.29-5.3-1.19-.32-1.2-.77-.08-1.35,4.65.02,6.21-4.04,10.12-1.33.97.68-.09,3.5-2.35,4.75,1.98.68,3.92.71,5.54,1.75Z"/>
          <path class="cls-6" d="M461.53,74.67c.16,2.66-1.36,4.83-2.71,7.09l.75,1.06c5.9,3.35-4.8,7.52.75,17.66-1.55,2.16-7.15-.84-6.25-2.8,1.29-2.82,2.03-5.24,1.85-8.14.07-1.63,3.78-3.64,2.58-6.1l-.53-.77c-1.57-.04-3.22.41-4.38,1.52l-.24-3.05c6.16-2.09,2.47-6.95,8.19-6.45Z"/>
          <polygon class="cls-123" points="440.03 75.95 440.1 77.3 421.29 77.2 421.24 75.86 440.03 75.95"/>
          <path class="cls-113" d="M414.66,104.43l-1.65-.23.1-16.27c0-1.44.54-2.39,1.4-2.67l.15,19.17Z"/>
          <path class="cls-47" d="M426.87,66.93c1.16-.56,1.86-.36,2.43.37.41.53-.06,1.9-.61,2.14-.46.2-1.64.12-2.6.07-.74-.04-.98-1.74.77-2.58Z"/>
        </g>
      </g>
    </g>
  </g>
</svg>